<?xml version="1.0" encoding="UTF-8"?>
<svg version="1.1" xmlns="http://www.w3.org/2000/svg" width="512" height="512">
<path d="M0 0 C1.44691727 -0.00935994 1.44691727 -0.00935994 2.92306519 -0.01890898 C6.1520845 -0.03485099 9.38035022 -0.02222963 12.609375 -0.00964355 C14.92562297 -0.01506411 17.24186749 -0.0221864 19.55810547 -0.03088379 C25.84729455 -0.04912772 32.13622133 -0.042045 38.42541504 -0.02936745 C45.00497142 -0.01924544 51.58450524 -0.02863091 58.1640625 -0.03491211 C69.92148203 -0.04345692 81.67879115 -0.03022092 93.43619156 -0.00987476 C104.09293685 0.00799589 114.74950785 0.00489166 125.40625 -0.0135498 C137.78656125 -0.03496393 150.16676138 -0.04291967 162.54708862 -0.03110075 C169.0988178 -0.02486231 175.65042695 -0.02403996 182.20214844 -0.0372467 C188.36147014 -0.04879504 194.52046245 -0.04079758 200.67974854 -0.01766968 C202.94125827 -0.01237722 205.20279569 -0.01390548 207.46429443 -0.02272034 C210.54948815 -0.03363775 213.63362385 -0.01995733 216.71875 0 C218.06379105 -0.01338433 218.06379105 -0.01338433 219.43600464 -0.02703905 C224.90689122 0.04168897 228.01118192 0.87993346 232.359375 4.50793457 C237.54620156 9.96950994 236.87742476 15.80707225 236.75 22.90637207 C236.74434021 24.09646881 236.73868042 25.28656555 236.73284912 26.51272583 C236.71050951 30.30320943 236.66031463 34.09273802 236.609375 37.88293457 C236.58930701 40.45713964 236.57105677 43.03135957 236.5546875 45.60559082 C236.51065245 51.90669635 236.44376305 58.20724722 236.359375 64.50793457 C237.6239151 64.49905212 238.8884552 64.49016968 240.1913147 64.48101807 C252.10947324 64.39992486 264.02757579 64.33996544 275.94594765 64.30068588 C282.07329433 64.27981295 288.20041824 64.25150005 294.32763672 64.20617676 C300.24096236 64.16270947 306.15407376 64.13879525 312.06754684 64.1284256 C314.32340238 64.12103589 316.57924622 64.10660558 318.83501053 64.08501434 C321.99524508 64.05596941 325.15459481 64.05197913 328.31494141 64.05383301 C329.71324692 64.03226135 329.71324692 64.03226135 331.13980103 64.01025391 C336.86648802 64.04659481 339.95008826 64.78546788 344.359375 68.50793457 C345.94799805 70.34655762 345.94799805 70.34655762 347.18359375 72.33215332 C347.68036621 73.12283203 348.17713867 73.91351074 348.68896484 74.72814941 C349.2402002 75.64547852 349.79143555 76.56280762 350.359375 77.50793457 C351.33898193 79.12949463 351.33898193 79.12949463 352.33837891 80.78381348 C354.22900419 83.93402431 356.09757027 87.09689967 357.96096802 90.26327515 C360.05133394 93.81451072 362.15029663 97.3606515 364.25 100.90637207 C364.67648331 101.62669113 365.10296661 102.34701019 365.54237366 103.0891571 C370.4272642 111.3275006 375.40454729 119.50917433 380.3996582 127.68103027 C381.66035507 129.74704405 382.90864057 131.82069781 384.14260864 133.90278625 C385.63486694 136.38521956 387.22451941 138.75720115 388.90089417 141.11862183 C396.82042359 152.70081525 397.77059452 162.30700226 397.4765625 176.08215332 C397.46803715 178.10613275 397.46340233 180.13013188 397.46243286 182.15412903 C397.45020534 186.35949697 397.40529567 190.56269046 397.33349609 194.76745605 C397.24231075 200.1487235 397.21340431 205.52805285 397.20602226 210.91002178 C397.19716344 215.07350107 397.166564 219.2365772 397.1282692 223.39988136 C397.11056695 225.38493374 397.09707695 227.37002846 397.08794785 229.35513878 C397.0698221 232.12124357 397.02503247 234.88561317 396.97216797 237.65124512 C396.97083862 238.46323364 396.96950928 239.27522217 396.96813965 240.11181641 C396.79701024 246.6119264 394.64069695 250.30678687 389.9140625 254.86730957 C384.50407286 257.36422787 379.36029855 256.93036574 373.484375 256.75793457 C372.3190625 256.7398877 371.15375 256.72184082 369.953125 256.70324707 C367.08769251 256.65627277 364.22396332 256.5905975 361.359375 256.50793457 C361.14788818 257.67026611 361.14788818 257.67026611 360.93212891 258.8560791 C359.04561137 267.59067136 352.17865025 275.08327836 345.078125 280.12902832 C342.55954996 281.72704825 340.01097193 283.14279491 337.359375 284.50793457 C336.17988281 285.13248535 336.17988281 285.13248535 334.9765625 285.76965332 C324.2580557 290.55770103 310.10629433 290.35324664 299.171875 286.38293457 C297.20700253 285.48205434 295.26550335 284.52724009 293.359375 283.50793457 C292.54339844 283.07352051 291.72742188 282.63910645 290.88671875 282.19152832 C282.12573665 276.91690617 275.17955699 268.97534212 271.359375 259.50793457 C271.359375 258.51793457 271.359375 257.52793457 271.359375 256.50793457 C227.139375 256.50793457 182.919375 256.50793457 137.359375 256.50793457 C137.029375 258.15793457 136.699375 259.80793457 136.359375 261.50793457 C131.20343925 272.26965281 123.86855132 279.09742391 113.359375 284.50793457 C112.57304687 284.92430176 111.78671875 285.34066895 110.9765625 285.76965332 C100.2580557 290.55770103 86.10629433 290.35324664 75.171875 286.38293457 C73.20700253 285.48205434 71.26550335 284.52724009 69.359375 283.50793457 C68.54339844 283.07352051 67.72742188 282.63910645 66.88671875 282.19152832 C58.12573665 276.91690617 51.17955699 268.97534212 47.359375 259.50793457 C47.359375 258.51793457 47.359375 257.52793457 47.359375 256.50793457 C46.65859833 256.51681702 45.95782166 256.52569946 45.23580933 256.53485107 C38.61549213 256.6151656 31.99531187 256.67598408 25.37461662 256.71518326 C21.97121182 256.73601403 18.56821125 256.76424715 15.16503906 256.80969238 C11.24809694 256.86166807 7.33131565 256.88091726 3.4140625 256.89855957 C2.19822479 256.91920471 0.98238708 256.93984985 -0.27029419 256.96112061 C-11.02630564 256.96396935 -11.02630564 256.96396935 -15.640625 252.50793457 C-20.82745156 247.0463592 -20.15867476 241.20879689 -20.03125 234.10949707 C-20.02559021 232.91940033 -20.01993042 231.72930359 -20.01409912 230.50314331 C-19.99175951 226.71265971 -19.94156463 222.92313112 -19.890625 219.13293457 C-19.87055701 216.5587295 -19.85230677 213.98450957 -19.8359375 211.41027832 C-19.79190245 205.10917279 -19.72501305 198.80862192 -19.640625 192.50793457 C-20.27564941 192.52888184 -20.91067383 192.5498291 -21.56494141 192.57141113 C-24.46500576 192.65498038 -27.36481616 192.70672231 -30.265625 192.75793457 C-31.26464844 192.7914502 -32.26367188 192.82496582 -33.29296875 192.85949707 C-39.45291785 192.9410858 -42.95690286 192.62120337 -47.640625 188.50793457 C-51.26896163 184.68863285 -51.95062958 181.62514451 -52.140625 176.50793457 C-51.95062958 171.39072463 -51.26896163 168.32723629 -47.640625 164.50793457 C-42.17661382 159.70941193 -37.31221279 160.02335969 -30.265625 160.25793457 C-26.759375 160.34043457 -23.253125 160.42293457 -19.640625 160.50793457 C-19.640625 149.94793457 -19.640625 139.38793457 -19.640625 128.50793457 C-23.46914062 128.55434082 -27.29765625 128.60074707 -31.2421875 128.64855957 C-34.95555292 128.67976628 -38.66890367 128.70404788 -42.38232422 128.72766113 C-44.96051588 128.7477602 -47.53866204 128.77504398 -50.11669922 128.80969238 C-53.82530961 128.85828304 -57.53331656 128.88092115 -61.2421875 128.89855957 C-62.96751205 128.92952728 -62.96751205 128.92952728 -64.72769165 128.96112061 C-71.02914693 128.96288231 -74.87667313 128.78676894 -79.640625 124.50793457 C-83.26896163 120.68863285 -83.95062958 117.62514451 -84.140625 112.50793457 C-83.95062958 107.39072463 -83.26896163 104.32723629 -79.640625 100.50793457 C-74.01993862 95.45960774 -68.53817508 95.98635447 -61.2421875 96.11730957 C-60.05209076 96.12296936 -58.86199402 96.12862915 -57.63583374 96.13446045 C-53.84535014 96.15680006 -50.05582155 96.20699494 -46.265625 96.25793457 C-43.69141993 96.27800256 -41.1172 96.2962528 -38.54296875 96.31262207 C-32.2415261 96.35325033 -25.94214095 96.43155256 -19.640625 96.50793457 C-19.640625 85.94793457 -19.640625 75.38793457 -19.640625 64.50793457 C-22.21439941 64.52888184 -24.78817383 64.5498291 -27.43994141 64.57141113 C-35.94948534 64.63772913 -44.45904077 64.68188918 -52.9687748 64.71518326 C-58.12759714 64.73604624 -63.28615442 64.76434054 -68.44482422 64.80969238 C-73.42447892 64.85319581 -78.40387886 64.87708138 -83.38370895 64.88744354 C-85.28231186 64.89482681 -87.18090102 64.90924471 -89.07939529 64.9308548 C-91.74154903 64.95994865 -94.40265393 64.96388809 -97.06494141 64.96203613 C-97.84753326 64.97641724 -98.63012512 64.99079834 -99.43643188 65.00561523 C-104.62755229 64.96661326 -107.49438505 63.88508225 -111.640625 60.50793457 C-115.26896163 56.68863285 -115.95062958 53.62514451 -116.140625 48.50793457 C-115.95062958 43.39072463 -115.26896163 40.32723629 -111.640625 36.50793457 C-106.66216195 32.45293411 -103.21404015 31.94083563 -97.06494141 32.05383301 C-96.22525818 32.0532489 -95.38557495 32.05266479 -94.52044678 32.05206299 C-91.7605982 32.05483718 -89.00184607 32.08589707 -86.2421875 32.11730957 C-84.32262766 32.12477434 -82.40306018 32.13046616 -80.48348999 32.13446045 C-75.44287908 32.14969819 -70.40273268 32.18896403 -65.36230469 32.23327637 C-60.21425662 32.27426918 -55.06613315 32.29248003 -49.91796875 32.31262207 C-39.82531728 32.35546003 -29.73300984 32.42368888 -19.640625 32.50793457 C-19.6720459 31.55539795 -19.6720459 31.55539795 -19.70410156 30.58361816 C-19.78767081 27.68355381 -19.83941274 24.78374341 -19.890625 21.88293457 C-19.92414063 20.88391113 -19.95765625 19.8848877 -19.9921875 18.85559082 C-20.07111346 12.89668094 -19.88613531 9.07677845 -15.640625 4.50793457 C-10.43644014 0.15848178 -6.48315043 -0.064513 0 0 Z " fill="#FFC006" transform="translate(115.640625,111.4920654296875)"/>
<path d="M0 0 C16.70625 -0.0825 33.4125 -0.165 50.625 -0.25 C58.53073975 -0.30462402 58.53073975 -0.30462402 66.59619141 -0.36035156 C73.04370117 -0.37841797 73.04370117 -0.37841797 76.06430054 -0.3817749 C78.16907128 -0.38790787 80.27382817 -0.40195693 82.37850952 -0.42230225 C85.5711093 -0.45161515 88.76285206 -0.455623 91.95556641 -0.45410156 C92.88955072 -0.468494 93.82353504 -0.48288643 94.78582191 -0.497715 C100.5102063 -0.4612389 103.59257731 0.27910701 108 4 C109.58862305 5.83862305 109.58862305 5.83862305 110.82421875 7.82421875 C111.56937744 9.01023682 111.56937744 9.01023682 112.32958984 10.22021484 C112.8808252 11.13754395 113.43206055 12.05487305 114 13 C114.97960693 14.62156006 114.97960693 14.62156006 115.97900391 16.27587891 C117.86962919 19.42608974 119.73819527 22.5889651 121.60159302 25.75534058 C123.69195894 29.30657615 125.79092163 32.85271693 127.890625 36.3984375 C128.31710831 37.11875656 128.74359161 37.83907562 129.18299866 38.58122253 C134.0678892 46.81956603 139.04517229 55.00123976 144.0402832 63.1730957 C145.30098007 65.23910948 146.54926557 67.31276324 147.78323364 69.39485168 C149.27549194 71.87728499 150.86514441 74.24926658 152.54151917 76.61068726 C160.46104859 88.19288068 161.41121952 97.79906769 161.1171875 111.57421875 C161.10866215 113.59819818 161.10402733 115.62219731 161.10305786 117.64619446 C161.09083034 121.8515624 161.04592067 126.05475589 160.97412109 130.25952148 C160.88293575 135.64078893 160.85402931 141.02011828 160.84664726 146.40208721 C160.83778844 150.5655665 160.807189 154.72864263 160.7688942 158.89194679 C160.75119195 160.87699917 160.73770195 162.86209389 160.72857285 164.84720421 C160.7104471 167.613309 160.66565747 170.3776786 160.61279297 173.14331055 C160.61146362 173.95529907 160.61013428 174.7672876 160.60876465 175.60388184 C160.43763524 182.10399183 158.28132195 185.7988523 153.5546875 190.359375 C148.14469786 192.8562933 143.00092355 192.42243117 137.125 192.25 C135.9596875 192.23195313 134.794375 192.21390625 133.59375 192.1953125 C130.72831751 192.1483382 127.86458832 192.08266293 125 192 C124.85900879 192.7748877 124.71801758 193.54977539 124.57275391 194.34814453 C122.68623637 203.08273679 115.81927525 210.57534379 108.71875 215.62109375 C106.20017496 217.21911368 103.65159693 218.63486033 101 220 C100.21367187 220.41636719 99.42734375 220.83273437 98.6171875 221.26171875 C87.8986807 226.04976646 73.74691933 225.84531207 62.8125 221.875 C60.84762753 220.97411977 58.90612835 220.01930552 57 219 C56.18402344 218.56558594 55.36804688 218.13117188 54.52734375 217.68359375 C45.76636165 212.4089716 38.82018199 204.46740755 35 195 C35 194.01 35 193.02 35 192 C-9.22 192 -53.44 192 -99 192 C-99.33 193.65 -99.66 195.3 -100 197 C-105.15593575 207.76171824 -112.49082368 214.58948934 -123 220 C-123.78632813 220.41636719 -124.57265625 220.83273437 -125.3828125 221.26171875 C-136.1013193 226.04976646 -150.25308067 225.84531207 -161.1875 221.875 C-163.15237247 220.97411977 -165.09387165 220.01930552 -167 219 C-167.81597656 218.56558594 -168.63195312 218.13117188 -169.47265625 217.68359375 C-178.07132416 212.5066942 -185.51139851 204.47912931 -189 195 C-189.29648438 194.20335937 -189.59296875 193.40671875 -189.8984375 192.5859375 C-194.20738553 179.18471383 -192.71752678 165.82585459 -186.6796875 153.25 C-179.47055643 140.3287159 -168.64641664 132.98172606 -154.65217018 128.82434845 C-148.34579629 127.40090724 -142.09504593 127.47643278 -135.6628418 127.54589844 C-134.17325878 127.54702981 -132.68367353 127.54638742 -131.1940918 127.54412842 C-127.19272214 127.54299161 -123.19184266 127.56633106 -119.19058585 127.59442425 C-114.99327892 127.61961238 -110.79595789 127.62179351 -106.59858704 127.62652588 C-98.66927778 127.63890492 -90.74019196 127.67165702 -82.81098062 127.71192384 C-72.08283988 127.76520928 -61.35463704 127.78662805 -50.62639713 127.80993271 C-33.75076442 127.84742278 -16.87560295 127.92714694 0 128 C0 85.76 0 43.52 0 0 Z " fill="#F34336" transform="translate(352,176)"/>
<path d="M0 0 C2.26187413 1.66337135 4.26290102 3.40111247 6.2734375 5.359375 C6.97984375 6.03871094 7.68625 6.71804688 8.4140625 7.41796875 C18.44840129 17.84253182 21.8112973 30.30706482 21.5859375 44.4765625 C20.59877406 56.74206829 15.27967313 68.34643609 6.2421875 76.76953125 C2.50054698 79.79105445 -1.45644811 82.16096299 -5.7265625 84.359375 C-6.51289063 84.77574219 -7.29921875 85.19210937 -8.109375 85.62109375 C-18.8278818 90.40914146 -32.97964317 90.20468707 -43.9140625 86.234375 C-45.87893497 85.33349477 -47.82043415 84.37868052 -49.7265625 83.359375 C-50.54253906 82.92496094 -51.35851562 82.49054688 -52.19921875 82.04296875 C-60.79788666 76.8660692 -68.23796101 68.83850431 -71.7265625 59.359375 C-72.02304687 58.56273437 -72.31953125 57.76609375 -72.625 56.9453125 C-76.93394803 43.54408883 -75.44408928 30.18522959 -69.40625 17.609375 C-62.8583759 5.87329465 -53.13928442 -1.59937075 -40.5390625 -6.015625 C-26.00746647 -10.03138222 -12.74627269 -7.66967698 0 0 Z " fill="#465A63" transform="translate(458.7265625,311.640625)"/>
<path d="M0 0 C10.66034279 7.89925915 18.58135588 17.93421781 21.3671875 31.16015625 C23.17617069 46.00373063 20.55893282 59.3527002 11.65234375 71.5 C6.94544172 77.30556467 1.25863196 81.09883975 -5.34765625 84.5 C-6.13398438 84.91636719 -6.9203125 85.33273437 -7.73046875 85.76171875 C-18.44897555 90.54976646 -32.60073692 90.34531207 -43.53515625 86.375 C-45.50002872 85.47411977 -47.4415279 84.51930552 -49.34765625 83.5 C-50.16363281 83.06558594 -50.97960937 82.63117188 -51.8203125 82.18359375 C-60.41898041 77.0066942 -67.85905476 68.97912931 -71.34765625 59.5 C-71.64414063 58.70335937 -71.940625 57.90671875 -72.24609375 57.0859375 C-76.55504178 43.68471383 -75.06518303 30.32585459 -69.02734375 17.75 C-62.42759521 5.92094251 -52.65515227 -1.55619803 -39.91015625 -5.875 C-26.57932889 -9.63016264 -11.74078291 -7.5015984 0 0 Z " fill="#465A63" transform="translate(234.34765625,311.5)"/>
<path d="M0 0 C13.303125 -0.495 13.303125 -0.495 26.875 -1 C29.65534668 -1.14566406 32.43569336 -1.29132813 35.30029297 -1.44140625 C52.05766827 -1.96494148 52.05766827 -1.96494148 57.04135132 1.36325073 C60.44228192 4.96071704 62.27173811 9.19144899 64.06030273 13.75506592 C65.59232145 17.41505425 67.72008585 20.67765308 69.81640625 24.03515625 C70.61264475 25.37071715 71.4049699 26.70861892 72.19335938 28.04882812 C72.58418701 28.71084229 72.97501465 29.37285645 73.37768555 30.05493164 C73.9641687 31.04867798 73.9641687 31.04867798 74.5625 32.0625 C75.75239274 34.07494423 76.94286008 36.08704703 78.13363647 38.09896851 C78.91538466 39.41999526 79.69666345 40.74129991 80.47744751 42.06289673 C82.50104105 45.48457652 84.53756767 48.89778809 86.59326172 52.30029297 C87.01179916 52.99368271 87.43033661 53.68707245 87.86155701 54.401474 C88.66580714 55.73205303 89.47193993 57.06149637 90.28016663 58.3896637 C93 62.88993839 93 62.88993839 93 64 C62.31 64 31.62 64 0 64 C0 42.88 0 21.76 0 0 Z " fill="#F9F9F9" transform="translate(384,208)"/>
<path d="M0 0 C34.65 0 69.3 0 105 0 C105 0.33 105 0.66 105 1 C103.76636719 1.32871094 103.76636719 1.32871094 102.5078125 1.6640625 C88.28129694 5.70531288 77.71266632 12.137573 70.35546875 25.21484375 C64.99205034 36.23535478 62.90287391 48.20307569 66.02099609 60.2253418 C66.50560303 62.09379761 66.50560303 62.09379761 67 64 C59.6718614 64.09288522 52.34385077 64.16385817 45.01524162 64.20724869 C41.61183682 64.22807946 38.20883625 64.25631258 34.80566406 64.30175781 C30.88872194 64.3537335 26.97194065 64.37298269 23.0546875 64.390625 C21.83884979 64.41127014 20.62301208 64.43191528 19.37033081 64.45318604 C8.61431936 64.45603478 8.61431936 64.45603478 4 60 C-1.18686455 54.53838462 -0.51861927 48.702221 -0.390625 41.6015625 C-0.38659668 40.54606201 -0.38256836 39.49056152 -0.37841797 38.40307617 C-0.3575594 34.47687284 -0.30171402 30.55091816 -0.25 26.625 C-0.1675 17.83875 -0.085 9.0525 0 0 Z " fill="#F34335" transform="translate(96,304)"/>
<path d="M0 0 C4.9981495 2.67142473 8.27030829 5.90467487 10.0625 11.28125 C10.43076224 16.89724916 10.27806007 20.45790989 7.0625 25.28125 C3.13016191 29.25656446 -0.08209849 31.15958433 -5.75 31.53125 C-10.46892223 31.44482285 -13.95192669 30.24535765 -17.3828125 26.8515625 C-21.20774286 22.45835677 -22.25490764 19.14920689 -22.1484375 13.3359375 C-21.66258058 8.60333116 -19.42007414 5.50084191 -15.9375 2.46875 C-11.12938619 -1.03716632 -5.66514319 -2.10158538 0 0 Z " fill="#F6F6F6" transform="translate(213.9375,336.71875)"/>
<path d="M0 0 C4.9981495 2.67142473 8.27030829 5.90467487 10.0625 11.28125 C10.6014234 17.74833082 9.83654343 20.97718897 6.0625 26.28125 C1.6032457 30.4142174 -1.76193087 31.60429156 -7.8828125 31.4921875 C-12.61541884 31.00633058 -15.71790809 28.76382414 -18.75 25.28125 C-22.04792257 20.75838476 -22.499651 16.75701714 -21.9375 11.28125 C-20.07893173 6.01530656 -17.33435804 3.48729232 -12.9375 0.28125 C-8.59152177 -1.16740941 -4.33374753 -1.60768053 0 0 Z " fill="#F6F6F7" transform="translate(437.9375,336.71875)"/>
</svg>
